<svg xmlns="http://www.w3.org/2000/svg" width="137" height="81.254" viewBox="0 0 137 81.254">
  <g id="Logo" transform="translate(-1175 -406.96)">
    <g id="icon_" data-name="icon&apos;" transform="translate(1219.188 407.453)">
      <path id="Path_1" data-name="Path 1" d="M1175.08,1676.5c1.9,2.425,6.266,3.181,6.266,3.181a16.183,16.183,0,0,0,6.938,4.726c4.028,1.181,5.986,1.679,9.175,0s3.133-5.72,3.581-6.715,6.49-6.715,3.357-11.938.448-5.472-6.938-7.461-6.416-6.7-11.413-1.492-9.847-.249-10.966,4.974-2.686,2.736-1.343,8.207S1173.178,1674.077,1175.08,1676.5Z" transform="translate(-1164.715 -1645.591)" fill="none" stroke="#51ff8b" stroke-width="1"/>
      <path id="Path_7" data-name="Path 7" d="M1175.538,1681.932c2.37,3.022,7.808,3.964,7.808,3.964s3.625,4.416,8.645,5.888,7.459,2.092,11.433,0,3.9-7.128,4.462-8.367,8.087-8.367,4.183-14.875.558-6.818-8.645-9.3-7.995-8.345-14.222-1.86-12.27-.31-13.664,6.2-3.346,3.409-1.673,10.227S1173.168,1678.91,1175.538,1681.932Z" transform="translate(-1168.738 -1649.614)" fill="none" stroke="#51ff8b" stroke-width="1"/>
      <path id="Path_8" data-name="Path 8" d="M1175.79,1684.924c2.628,3.35,8.658,4.4,8.658,4.4s4.02,4.9,9.585,6.529,8.271,2.32,12.677,0,4.329-7.9,4.947-9.278,8.967-9.278,4.638-16.494.619-7.559-9.585-10.309-8.865-9.253-15.77-2.062-13.6-.344-15.151,6.873-3.71,3.78-1.855,11.34S1173.162,1681.573,1175.79,1684.924Z" transform="translate(-1170.749 -1652.43)" fill="none" stroke="#51ff8b" stroke-width="1"/>
      <path id="Path_9" data-name="Path 9" d="M1176.146,1689.134c2.991,3.813,9.853,5,9.853,5s4.575,5.573,10.909,7.43,9.413,2.64,14.428,0,4.927-8.995,5.631-10.559,10.205-10.559,5.278-18.772.7-8.6-10.909-11.732-10.088-10.531-17.947-2.347-15.483-.391-17.243,7.822-4.223,4.3-2.111,12.906S1173.154,1685.321,1176.146,1689.134Z" transform="translate(-1173.22 -1654.433)" fill="none" stroke="#51ff8b" stroke-width="1"/>
      <path id="Path_5" data-name="Path 5" d="M1174.685,1671.81c1.5,1.91,4.934,2.505,4.934,2.505a12.742,12.742,0,0,0,5.463,3.721c3.172.93,4.714,1.322,7.225,0s2.467-4.5,2.82-5.288,5.11-5.288,2.643-9.4.353-4.308-5.463-5.875-5.052-5.274-8.987-1.175-7.754-.2-8.635,3.917-2.115,2.154-1.057,6.463S1173.187,1669.9,1174.685,1671.81Z" transform="translate(-1160.692 -1643.012)" fill="none" stroke="#51ff8b" stroke-width="1"/>
      <path id="Path_6" data-name="Path 6" d="M1174.431,1668.8c1.238,1.578,4.078,2.07,4.078,2.07a10.535,10.535,0,0,0,4.515,3.076c2.622.769,3.9,1.093,5.972,0s2.039-3.723,2.331-4.371,4.224-4.37,2.185-7.769.291-3.561-4.515-4.856-4.175-4.359-7.428-.971-6.409-.162-7.137,3.237-1.748,1.781-.874,5.342S1173.193,1667.217,1174.431,1668.8Z" transform="translate(-1156.67 -1642.792)" fill="none" stroke="#51ff8b" stroke-width="1"/>
    </g>
    <text id="Flowstream" transform="translate(1175 481.213)" fill="#fff" font-size="26" font-family="Roboto-Regular, Roboto"><tspan x="0" y="0">Flowstream</tspan></text>
  </g>
</svg>
